<?xml version="1.0" encoding="utf-8"?>
<!-- Generator: Adobe Illustrator 18.1.1, SVG Export Plug-In . SVG Version: 6.00 Build 0)  -->
<svg version="1.1" id="Capa_1" xmlns="http://www.w3.org/2000/svg" xmlns:xlink="http://www.w3.org/1999/xlink" x="0px" y="0px"
	 viewBox="-41 178 512 485.8" enable-background="new -41 178 512 485.8" xml:space="preserve">
<g>
	<g>
		<g>
			<path fill="#FFFFFF" d="M115.8,465.5h301.8L471,274.9h-78.6l-28.2-87.1l-117.7,38.1l16.1,49h-5.5l-29-87.1l-117.7,38.1l16.1,49
				H63.6l-13.1-52.2C43.9,196.5,21.2,178-5.1,178H-41v21.8h35.9c16.3,0,30.5,10.9,34.9,27.3l57.8,226.1
				c-11.9,8.6-19.7,22.6-19.7,38.6c0,26.1,21.8,48,48,48H410v-21.8H115.8c-14.2,0-26.1-12-26.1-26.1
				C89.7,477.5,101.7,465.5,115.8,465.5L115.8,465.5z M350.1,214.9l19.6,58.8h-84.9l-12-33.7L350.1,214.9z M214,214.9l19.6,58.8
				h-84.9l-12-33.7L214,214.9z M442.7,295.6l-41.4,148.2H107.2L69,295.6L442.7,295.6L442.7,295.6z"/>
			<path fill="#FFFFFF" d="M314.2,572.2c-25.1,0-45.8,20.7-45.8,45.8c0,25.1,20.7,45.8,45.8,45.8c26.1,0,45.8-20.7,45.8-45.8
				C359.9,592.9,339.2,572.2,314.2,572.2z M314.2,643.1c-14.2,0-25.1-12-25.1-25.1c0-14.2,12-25.1,25.1-25.1
				c14.2,0,25.1,10.9,25.1,25.1C339.2,632.2,327.2,643.1,314.2,643.1z"/>
			<path fill="#FFFFFF" d="M146.4,572.2c-25.1,0-45.8,20.7-45.8,45.8c0,25.1,20.7,45.8,45.8,45.8s45.8-20.7,45.8-45.8
				C192.1,592.9,171.4,572.2,146.4,572.2z M146.4,643.1c-14.2,0-25.1-12-25.1-25.1c0-14.2,12-25.1,25.1-25.1s25.1,10.9,25.1,25.1
				C171.4,632.2,159.4,643.1,146.4,643.1z"/>
		</g>
	</g>
</g>
</svg>
