<?xml version="1.0" encoding="utf-8"?>
<!-- Generator: Adobe Illustrator 18.1.1, SVG Export Plug-In . SVG Version: 6.00 Build 0)  -->
<svg version="1.1" id="Capa_1" xmlns="http://www.w3.org/2000/svg" xmlns:xlink="http://www.w3.org/1999/xlink" x="0px" y="0px"
	 viewBox="-4.9 239.3 595.3 693" enable-background="new -4.9 239.3 595.3 693" xml:space="preserve">
<g>
	<g>
		<path fill="#FFFFFF" d="M316,674.2h-39.5c-14.3,0-26.1-11.6-26.1-26.1c0-14.3,11.6-26.1,26.1-26.1h69.7c9.5,0,17.3-7.7,17.3-17.3
			c0-9.5-7.7-17.3-17.3-17.3h-32.8v-24.1c0-9.5-7.7-17.3-17.3-17.3c-9.6,0-17.3,7.7-17.3,17.3v24.1h-2.3
			c-33.4,0-60.6,27.2-60.6,60.6c0,33.4,27.2,60.6,60.6,60.6h39.7c14.3,0,26.1,11.6,26.1,26.1c0,14.5-11.6,26.1-26.1,26.1h-71.1
			c-9.5,0-17.3,7.7-17.3,17.3s7.7,17.3,17.3,17.3h34v24.6c0,9.5,7.7,17.3,17.3,17.3c9.5,0,17.3-7.7,17.3-17.3v-24.6h2.8
			c0.1,0,0.3,0,0.4,0c33.2-0.4,59.8-27.5,59.8-60.6C376.8,701.6,349.5,674.2,316,674.2z"/>
		<path fill="#FFFFFF" d="M556.1,635.1c-18.1-41.8-43.2-82.3-75-120.2c-38.3-46.2-76.5-76.9-96-91.2l73.5-136.3
			c3.7-6.8,2.4-15.2-3.1-20.4c-19.1-18.5-39.3-27.6-61.7-27.6c-20.6,0-39.5,7.7-55.9,14.8c-13,5.3-25.2,10.6-35.2,10.6
			c-3,0-5.7-0.4-8.3-1.5c-34.2-12.6-60.6-20.3-86.2-20.3c-32.2,0-59.8,13-86.8,40.6c-5.7,5.8-6.5,14.9-2,21.7l79.2,119.8
			c-19.6,14.6-57.1,45.1-94.6,90.1c-31.5,37.9-56.7,78.4-75,120.2c-22.5,52.4-34,107.3-34,163c0,73.9,60.2,134.1,134.1,134.1h327
			c73.9,0,134.1-60.2,134.1-134.1C590.4,742.6,578.9,687.6,556.1,635.1z M156.6,297.8c16.6-14.3,32.8-20.7,51.8-20.7
			c20.4,0,43.4,6.9,74.2,18.3c6.4,2.3,13.1,3.5,20,3.5c16.9,0,33-6.6,48.5-13.1c14.9-6.2,29-12,42.6-12c6.6,0,16,1.2,27.7,9.5
			l-69.2,128.4H231.8L156.6,297.8z M456.2,897.7h-327c-55,0-99.6-44.7-99.6-99.6c0-92.3,33.8-179.9,100.4-260.3
			c42.1-50.9,84.9-82.4,97.9-91.6h129.4c13.1,9.1,55.8,40.7,97.9,91.6c66.7,80.4,100.4,167.8,100.4,260.3
			C555.9,853,511.2,897.7,456.2,897.7z"/>
	</g>
</g>
</svg>
