<?xml version="1.0" encoding="utf-8"?>
<!-- Generator: Adobe Illustrator 18.1.1, SVG Export Plug-In . SVG Version: 6.00 Build 0)  -->
<svg version="1.1" id="Layer_1" xmlns="http://www.w3.org/2000/svg" xmlns:xlink="http://www.w3.org/1999/xlink" x="0px" y="0px"
	 viewBox="0 0 214.2 428.6" enable-background="new 0 0 214.2 428.6" xml:space="preserve">
<g>
	<path fill="#FFFFFF" d="M77.4,320.8V297c-29.8-3-53.6-28.6-53.6-58.9V83.3c0-32.7,26.8-59.5,59.5-59.5h47.6
		c32.7,0,59.5,26.8,59.5,59.5v154.8c0,31-23.8,56-53.6,58.9v23.8c43.5-3,77.4-39.3,77.4-82.7V83.3c0-45.8-37.5-83.3-83.3-83.3H83.3
		C37.5,0,0,37.5,0,83.3v154.8C0,282.1,33.9,317.8,77.4,320.8z"/>
	<path fill="#FFFFFF" d="M107.1,124.9c6.5,0,11.9-5.4,11.9-11.9V77.3c0-6.5-5.4-11.9-11.9-11.9c-6.5,0-11.9,5.4-11.9,11.9V113
		C95.2,119.6,100.6,124.9,107.1,124.9z"/>
	<path fill="#FFFFFF" d="M95.2,297.6v23.8v66.7l-9.5-9.5c-2.4-2.4-5.4-3.6-8.3-3.6c-2.9,0-6,1.2-8.3,3.6c-4.8,4.8-4.8,11.9,0,16.7
		l8.3,8.3L98.8,425l0,0c0.6,0.6,1.2,1.2,1.8,1.2l0.6,0.6c0.6,0,0.6,0.6,1.2,0.6s0.6,0,1.2,0.6c0.6,0,0.6,0,1.2,0.6
		c0.6,0,1.8,0,2.4,0s1.8,0,2.4,0c0.6,0,0.6,0,1.2-0.6c0.6,0,0.6,0,1.2-0.6c0.6,0,0.6-0.6,1.2-0.6c0,0,0.6,0,0.6-0.6
		c0.6-0.6,1.2-1.2,1.8-1.2l0,0l21.4-21.4l8.3-8.3c4.8-4.8,4.8-11.9,0-16.7c-2.4-2.4-5.4-3.6-8.3-3.6c-3,0-6,1.2-8.3,3.6l-9.5,9.5
		v-66.7v-23.8v-35.7c0-6.5-5.4-11.9-11.9-11.9c-6.5,0-11.9,5.4-11.9,11.9v35.7L95.2,297.6L95.2,297.6z"/>
</g>
</svg>
